<svg width="124" height="32" viewBox="0 0 124 32" fill="none" xmlns="http://www.w3.org/2000/svg">
<path d="M24.4853 20.7147L22.6 18.8267L24.4853 16.9413C25.7265 15.6892 26.4212 13.9964 26.4173 12.2334C26.4135 10.4703 25.7114 8.78061 24.4647 7.53395C23.218 6.28728 21.5283 5.5852 19.7653 5.58134C18.0022 5.57748 16.3094 6.27215 15.0573 7.51335L13.1706 9.40001L11.2853 7.51468L13.1706 5.62935C14.9211 3.87892 17.2952 2.89554 19.7706 2.89554C22.2461 2.89554 24.6202 3.87892 26.3706 5.62935C28.1211 7.37978 29.1045 9.75387 29.1045 12.2293C29.1045 14.7048 28.1211 17.0789 26.3706 18.8293L24.4853 20.7147ZM20.7133 24.4853L18.828 26.3707C17.0775 28.1211 14.7035 29.1045 12.228 29.1045C9.7525 29.1045 7.3784 28.1211 5.62797 26.3707C3.87755 24.6203 2.89417 22.2462 2.89417 19.7707C2.89417 17.2952 3.87755 14.9211 5.62797 13.1707L7.51464 11.2853L9.39997 13.1733L7.51464 15.0587C6.29047 16.3141 5.61019 18.0013 5.62118 19.7547C5.63217 21.5082 6.33353 23.1867 7.57334 24.4267C8.81315 25.6666 10.4916 26.3682 12.245 26.3795C13.9984 26.3907 15.6857 25.7107 16.9413 24.4867L18.828 22.6013L20.7133 24.4853ZM19.7706 10.3427L21.6573 12.2293L12.228 21.656L10.3426 19.7707L19.7706 10.3427Z" fill="url(#paint0_linear_2_5551)"/>
<path d="M37.06 15.8C37.06 11.74 39.46 8.26 44.1 8.26C47.86 8.26 49.92 10.62 49.92 12.02C49.92 12.94 49.42 13.5 48.44 13.5C46.54 13.5 47.1 10.9 44.1 10.9C42.04 10.9 40.34 12.68 40.34 15.8C40.34 18.42 41.38 20.7 44.22 20.7C46.8 20.7 46.74 17.94 48.32 17.94C49.12 17.94 49.92 18.4 49.92 19.2C49.92 21.28 47.4 23.34 44.22 23.34C39.72 23.34 37.06 20.76 37.06 15.8ZM51.7536 21.8V13.64C51.7536 12.76 52.3336 12.28 53.0736 12.28C53.8136 12.28 54.3936 12.76 54.3936 13.64V14.76H54.4336C54.7736 13.54 55.4336 12.28 56.8536 12.28C57.7736 12.28 58.4536 12.88 58.4536 13.7C58.4536 14.78 57.7336 15.16 57.0136 15.16H56.4936C55.3136 15.16 54.6736 15.98 54.6736 18.4V21.8C54.6736 22.58 54.3536 23.26 53.2136 23.26C52.0736 23.26 51.7536 22.58 51.7536 21.8ZM68.5838 18.32H61.9838C61.9838 19.86 62.9838 20.98 64.6838 20.98C66.8838 20.98 66.8838 19.54 68.0638 19.54C68.7638 19.54 69.2638 20.14 69.2638 20.68C69.2638 22.44 66.4438 23.26 64.6838 23.26C60.6038 23.26 59.0638 20.5 59.0638 17.96C59.0638 14.56 61.1238 12.28 64.5838 12.28C67.9438 12.28 69.8638 14.66 69.8638 17.06C69.8638 18.06 69.5638 18.32 68.5838 18.32ZM61.9838 16.64H67.1038C66.9438 15.3 65.9438 14.32 64.6438 14.32C63.1838 14.32 62.3038 15.22 61.9838 16.64ZM81.6498 9.8V21.88C81.6498 22.78 81.2298 23.26 80.3298 23.26C79.4698 23.26 79.0098 22.78 79.0098 21.88V21.42H78.9698C78.4898 22.66 77.3098 23.26 75.8898 23.26C73.4498 23.26 71.3098 21.48 71.3098 17.7C71.3098 14.9 72.7298 12.28 75.8098 12.28C77.1098 12.28 78.1098 12.82 78.6898 13.76H78.7298V9.8C78.7298 8.84 79.3098 8.34 80.1898 8.34C81.0698 8.34 81.6498 8.84 81.6498 9.8ZM74.2298 17.8C74.2298 19.52 74.9898 20.94 76.5498 20.98C78.2498 20.98 78.8898 19.46 78.8898 17.8C78.8898 16.3 78.3298 14.54 76.5498 14.56C74.6898 14.56 74.2298 16.44 74.2298 17.8ZM84.3364 21.08V9.98C84.3364 9 84.9764 8.34 85.9764 8.34C86.9764 8.34 87.6164 9 87.6164 9.98V20.24H93.0964C94.0364 20.24 94.7964 20.72 94.7964 21.62C94.7964 22.52 94.0364 23 93.0964 23H86.2564C85.0964 23 84.3364 22.54 84.3364 21.08ZM96.363 21.8V13.74C96.363 12.96 96.683 12.28 97.823 12.28C98.963 12.28 99.283 12.96 99.283 13.74V21.8C99.283 22.58 98.963 23.26 97.823 23.26C96.683 23.26 96.363 22.58 96.363 21.8ZM96.303 9.78C96.303 8.94 96.983 8.26 97.823 8.26C98.663 8.26 99.343 8.94 99.343 9.78C99.343 10.62 98.663 11.3 97.823 11.3C96.983 11.3 96.303 10.62 96.303 9.78ZM101.769 21.8V13.74C101.769 12.86 102.169 12.28 103.089 12.28C104.009 12.28 104.409 12.86 104.409 13.74V14.12H104.449C105.269 13.04 106.329 12.28 107.989 12.28C109.749 12.28 111.669 13.16 111.669 16.12V21.8C111.669 22.58 111.349 23.26 110.209 23.26C109.069 23.26 108.749 22.58 108.749 21.8V16.7C108.749 15.52 108.169 14.68 106.909 14.68C105.889 14.68 104.689 15.52 104.689 16.98V21.8C104.689 22.58 104.369 23.26 103.229 23.26C102.089 23.26 101.769 22.58 101.769 21.8ZM113.996 21.8V9.8C113.996 8.84 114.576 8.34 115.456 8.34C116.336 8.34 116.916 8.84 116.916 9.8V16.44L120.156 12.84C120.456 12.52 120.836 12.28 121.276 12.28C121.936 12.28 122.656 12.86 122.656 13.6C122.656 14.12 122.476 14.28 122.216 14.56L120.056 16.82L123.096 20.9C123.196 21.04 123.396 21.36 123.396 21.84C123.396 22.58 122.796 23.26 122.016 23.26C121.296 23.26 120.916 22.9 120.696 22.58L117.936 18.68L116.916 19.58V21.8C116.916 22.76 116.336 23.26 115.456 23.26C114.576 23.26 113.996 22.76 113.996 21.8Z" fill="white"/>
<defs>
<linearGradient id="paint0_linear_2_5551" x1="15.9993" y1="2.89554" x2="15.9993" y2="29.1045" gradientUnits="userSpaceOnUse">
<stop stop-color="#EBB5DE"/>
<stop offset="0.29" stop-color="#C97DEA"/>
<stop offset="0.64" stop-color="#3768F5"/>
<stop offset="1" stop-color="#41F8FC"/>
</linearGradient>
</defs>
</svg>
