<svg width="24" height="24" viewBox="0 0 24 24" fill="none" xmlns="http://www.w3.org/2000/svg">
<path d="M11.9855 17.508H13.1165L13.4795 19.2155H11.812" stroke="white" stroke-width="0.5" stroke-linecap="round" stroke-linejoin="round"/>
<path d="M21.079 15.8855L15.294 15.992L13.1165 17.508L13.3085 8.39201L14.504 5.42501L20.3105 3.11951L21.25 5.98001L20.396 9.35301M21.079 15.8855L19.9265 11.8795M21.079 15.8855L20.033 20.1335L15.7635 18.81L13.4795 20.8805H11.9855M20.396 9.35301L20.4815 11.0605L19.9265 11.8795M20.396 9.35301L21.143 9.22501M19.9265 11.8795L15.849 10.6765M21.143 10.164L20.441 10.2495M13.2195 12.622L17.194 12.5335" stroke="white" stroke-width="0.5" stroke-linecap="round" stroke-linejoin="round"/>
<path d="M17.8235 15.9455L15.7635 18.81M15.7635 18.81L15.294 15.992L17.194 12.5335L15.849 10.6765L13.3085 8.39201L20.3105 3.11951M15.7635 18.81L13.1165 17.508" stroke="white" stroke-width="0.5" stroke-linecap="round" stroke-linejoin="round"/>
<path d="M14.504 5.42499H11.9855M12.0145 17.508H10.8835L10.5205 19.2155H11.812M13.725 14.8315L15.318 14.239L14.181 13.6465L13.725 14.8315Z" stroke="white" stroke-width="0.5" stroke-linecap="round" stroke-linejoin="round"/>
<path d="M2.921 15.8855L8.706 15.992L10.8835 17.508L10.6915 8.39201L9.496 5.42501L3.6895 3.11951L2.75 5.98001L3.604 9.35301M2.921 15.8855L4.0735 11.8795M2.921 15.8855L3.967 20.1335L8.2365 18.81L10.5205 20.8805H12.0145M3.604 9.35301L3.5185 11.0605L4.0735 11.8795M3.604 9.35301L2.8565 9.22501M4.0735 11.8795L8.151 10.6765M2.8565 10.164L3.559 10.2495M10.7805 12.622L6.806 12.5335" stroke="white" stroke-width="0.5" stroke-linecap="round" stroke-linejoin="round"/>
<path d="M6.17651 15.9455L8.23651 18.81M8.23651 18.81L8.70601 15.992L6.80601 12.5335L8.15101 10.6765L10.6915 8.39201L3.68951 3.11951M8.23651 18.81L10.8835 17.508" stroke="white" stroke-width="0.5" stroke-linecap="round" stroke-linejoin="round"/>
<path d="M9.49601 5.42499H12.0145M10.275 14.8315L8.68201 14.239L9.81901 13.6465L10.275 14.8315Z" stroke="white" stroke-width="0.5" stroke-linecap="round" stroke-linejoin="round"/>
</svg>
