<svg width="15" height="16" viewBox="0 0 15 16" fill="none" xmlns="http://www.w3.org/2000/svg">
<path d="M4.28164 14.5936C4.62976 15.0338 5.07336 15.3891 5.57893 15.6328C6.0845 15.8764 6.63883 16.002 7.20004 16C7.76125 16.002 8.31557 15.8764 8.82114 15.6328C9.32672 15.3891 9.77031 15.0338 10.1184 14.5936C8.18166 14.8557 6.21841 14.8557 4.28164 14.5936ZM12.6 5.59999V6.16319C12.6 6.83919 12.792 7.49999 13.1536 8.06239L14.04 9.44079C14.8488 10.7 14.2312 12.4112 12.824 12.8088C9.14701 13.8501 5.25307 13.8501 1.57605 12.8088C0.168849 12.4112 -0.44875 10.7 0.360049 9.44079L1.24645 8.06239C1.60902 7.49534 1.80142 6.83624 1.80085 6.16319V5.59999C1.80085 2.5072 4.21844 0 7.20004 0C10.1816 0 12.6 2.5072 12.6 5.59999Z" fill="#FF2700"/>
</svg>
