<svg width="15" height="20" viewBox="0 0 15 20" fill="none" xmlns="http://www.w3.org/2000/svg">
<path d="M2.98942 2.73639C1.89742 3.43119 1.33342 4.31679 1.33342 5.19999C1.33342 6.08319 1.89742 6.96879 2.98942 7.66359C4.07182 8.35359 5.60662 8.79999 7.33342 8.79999C9.06022 8.79999 10.5938 8.35359 11.6774 7.66359C12.7694 6.96879 13.3334 6.08319 13.3334 5.19999C13.3334 4.31679 12.7694 3.43119 11.6774 2.73639C10.595 2.04639 9.06022 1.59999 7.33342 1.59999C5.60662 1.59999 4.07302 2.04639 2.98942 2.73639ZM2.34382 1.72359C3.64942 0.894394 5.41462 0.399994 7.33342 0.399994C9.25222 0.399994 11.0174 0.894394 12.323 1.72359C13.619 2.54919 14.5334 3.76359 14.5334 5.19999C14.5334 6.63639 13.6202 7.85079 12.323 8.67639C11.0174 9.50559 9.25222 9.99999 7.33342 9.99999C5.41462 9.99999 3.64942 9.50559 2.34382 8.67639C1.04782 7.85079 0.133423 6.63639 0.133423 5.19999C0.133423 3.76359 1.04662 2.54919 2.34382 1.72359ZM14.237 8.61879C13.9373 8.92487 13.6108 9.20357 13.2614 9.45159C13.3094 9.63319 13.3334 9.81599 13.3334 9.99999C13.3334 10.8832 12.7694 11.7688 11.6774 12.4636C10.5938 13.1536 9.05902 13.6 7.33342 13.6C5.60782 13.6 4.07302 13.1536 2.98942 12.4636C1.89742 11.7688 1.33342 10.8832 1.33342 9.99999C1.33342 9.81599 1.35742 9.63319 1.40542 9.45159C1.05609 9.20357 0.729599 8.92487 0.429823 8.61879C0.234263 9.05299 0.13323 9.52379 0.133423 9.99999C0.133423 11.4364 1.04662 12.6508 2.34382 13.4764C3.64942 14.3056 5.41462 14.8 7.33342 14.8C9.25222 14.8 11.0174 14.3056 12.323 13.4764C13.619 12.6508 14.5334 11.4364 14.5334 9.99999C14.5334 9.51159 14.4278 9.04959 14.237 8.61879ZM14.237 13.4188C13.9458 13.7172 13.6206 13.9948 13.2614 14.2516C13.3094 14.4332 13.3334 14.616 13.3334 14.8C13.3334 15.6832 12.7694 16.5688 11.6774 17.2636C10.5938 17.9536 9.05902 18.4 7.33342 18.4C5.60782 18.4 4.07302 17.9536 2.98942 17.2636C1.89742 16.5688 1.33342 15.6832 1.33342 14.8C1.33342 14.616 1.35742 14.4332 1.40542 14.2516C1.05609 14.0036 0.729599 13.7249 0.429823 13.4188C0.234263 13.853 0.13323 14.3238 0.133423 14.8C0.133423 16.2364 1.04662 17.4508 2.34382 18.2764C3.64942 19.1068 5.41462 19.6 7.33342 19.6C9.25222 19.6 11.0174 19.1056 12.323 18.2764C13.619 17.4508 14.5334 16.2364 14.5334 14.8C14.5334 14.3116 14.4278 13.8496 14.237 13.4188Z" fill="white"/>
</svg>
