<svg width="18" height="24" viewBox="0 0 18 24" fill="none" xmlns="http://www.w3.org/2000/svg">
<path d="M17.9166 5.37656V1.5C17.9166 1.30109 17.8376 1.11032 17.697 0.969669C17.5563 0.829016 17.3655 0.75 17.1666 0.75C16.9677 0.75 16.7769 0.829016 16.6363 0.969669C16.4956 1.11032 16.4166 1.30109 16.4166 1.5V5.37656C16.4131 6.33923 16.2116 7.29087 15.8245 8.17229C15.4374 9.05371 14.8731 9.84605 14.1666 10.5V5.02969C14.1665 4.86828 14.1143 4.71123 14.0178 4.58186C13.9213 4.45249 13.7856 4.35771 13.6309 4.31159C13.4763 4.26547 13.3108 4.27048 13.1592 4.32588C13.0076 4.38127 12.8779 4.48409 12.7894 4.61906L11.7882 6.14812C11.7807 6.15937 11.7732 6.17156 11.7666 6.18375C11.6196 6.44345 11.3753 6.6341 11.0877 6.71374C10.8001 6.79339 10.4926 6.75551 10.2329 6.60844C9.97317 6.46136 9.78253 6.21715 9.70288 5.92952C9.62324 5.64188 9.66112 5.33439 9.80819 5.07469L11.8829 1.90687C11.9918 1.74041 12.0301 1.5375 11.9894 1.34278C11.9487 1.14807 11.8323 0.977497 11.6658 0.868593C11.4994 0.759687 11.2965 0.721373 11.1018 0.762075C10.907 0.802776 10.7365 0.919159 10.6276 1.08562L8.54069 4.27312L8.51819 4.30875C8.19514 4.86235 8.08581 5.51502 8.21082 6.14368C8.33582 6.77234 8.68651 7.33353 9.19677 7.72144C9.70703 8.10935 10.3416 8.29716 10.9808 8.24946C11.62 8.20176 12.2196 7.92185 12.6666 7.4625V18H11.1666C10.9677 18 10.7769 18.079 10.6363 18.2197C10.4956 18.3603 10.4166 18.5511 10.4166 18.75C10.4166 18.9489 10.4956 19.1397 10.6363 19.2803C10.7769 19.421 10.9677 19.5 11.1666 19.5H12.6666C13.0645 19.5 13.446 19.342 13.7273 19.0607C14.0086 18.7794 14.1666 18.3978 14.1666 18V12.4106C15.3178 11.6327 16.2613 10.5851 16.9149 9.35914C17.5685 8.13313 17.9124 6.7659 17.9166 5.37656ZM4.41663 18.75C4.41663 18.9489 4.33761 19.1397 4.19696 19.2803C4.0563 19.421 3.86554 19.5 3.66663 19.5H2.16663C1.7688 19.5 1.38727 19.342 1.10597 19.0607C0.824661 18.7794 0.666626 18.3978 0.666626 18V5.25C0.666626 5.05109 0.745644 4.86032 0.886296 4.71967C1.02695 4.57902 1.21771 4.5 1.41663 4.5C1.61554 4.5 1.8063 4.57902 1.94696 4.71967C2.08761 4.86032 2.16663 5.05109 2.16663 5.25V18H3.66663C3.86554 18 4.0563 18.079 4.19696 18.2197C4.33761 18.3603 4.41663 18.5511 4.41663 18.75ZM10.9473 14.7806C10.8776 14.8504 10.7949 14.9057 10.7038 14.9434C10.6128 14.9812 10.5152 15.0006 10.4166 15.0006C10.3181 15.0006 10.2205 14.9812 10.1294 14.9434C10.0384 14.9057 9.95566 14.8504 9.886 14.7806L8.16663 13.0603V22.5C8.16663 22.6989 8.08761 22.8897 7.94696 23.0303C7.8063 23.171 7.61554 23.25 7.41663 23.25C7.21771 23.25 7.02695 23.171 6.8863 23.0303C6.74564 22.8897 6.66663 22.6989 6.66663 22.5V13.0603L4.94725 14.7806C4.80652 14.9214 4.61565 15.0004 4.41663 15.0004C4.2176 15.0004 4.02673 14.9214 3.886 14.7806C3.74527 14.6399 3.66621 14.449 3.66621 14.25C3.66621 14.051 3.74527 13.8601 3.886 13.7194L6.886 10.7194C6.95566 10.6496 7.03837 10.5943 7.12942 10.5566C7.22047 10.5188 7.31806 10.4994 7.41663 10.4994C7.51519 10.4994 7.61278 10.5188 7.70383 10.5566C7.79488 10.5943 7.8776 10.6496 7.94725 10.7194L10.9473 13.7194C11.017 13.789 11.0723 13.8717 11.11 13.9628C11.1478 14.0538 11.1672 14.1514 11.1672 14.25C11.1672 14.3486 11.1478 14.4462 11.11 14.5372C11.0723 14.6283 11.017 14.711 10.9473 14.7806Z" fill="white"/>
</svg>
